<svg xmlns="http://www.w3.org/2000/svg" viewBox="0 0 48 48"><path fill="#FFC107" d="M43.611 20.083H42V20H24v8h11.303c-1.649 4.657-6.083 8-11.303 8-6.627 0-12-5.373-12-12s5.373-12 12-12c3.059 0 5.842 1.154 8.065 3.09l5.656-5.656C34.046 6.053 29.268 4 24 4 12.955 4 4 12.955 4 24s8.955 20 20 20c11.045 0 20-8.955 20-20V20h-.389z"/><path fill="#FF3D00" d="M6.306 14.691L11.66 19.01c-1.498 3.317-1.498 7.093 0 10.41l-5.364 4.319C4.01 32.67 3 28.425 3 24c0-4.425 1.01-8.67 3.306-11.309z"/><path fill="#4CAF50" d="M24 44c5.166 0 9.86-1.977 13.409-5.192l-5.656-5.656c-2.121 1.58-4.892 2.548-7.753 2.548-5.235 0-9.646-3.917-11.303-9.233L6.306 33.309C8.991 39.055 15.933 44 24 44z"/><path fill="#1976D2" d="M43.611 20.083H42V20H24v8h11.303c-1.649 4.657-6.083 8-11.303 8-6.627 0-12-5.373-12-12s5.373-12 12-12c3.059 0 5.842 1.154 8.065 3.09l5.656-5.656C34.046 6.053 29.268 4 24 4 12.955 4 4 12.955 4 24s8.955 20 20 20c11.045 0 20-8.955 20-20V20h-.389z" transform="translate(0 0)" opacity="0.2"/><path fill="#1976D2" d="M24 4c-5.166 0-9.86 1.977-13.409 5.192l5.656 5.656c2.121-1.58 4.892-2.548 7.753-2.548 5.235 0 9.646 3.917 11.303 9.233L43.611 14.691C40.926 8.945 34.067 4 24 4z"/></svg>